<?xml version="1.0" encoding="UTF-8" standalone="no"?>
<!-- Generator: Adobe Illustrator 15.1.0, SVG Export Plug-In . SVG Version: 6.00 Build 0)  -->

<svg
   xmlns:dc="http://purl.org/dc/elements/1.1/"
   xmlns:cc="http://creativecommons.org/ns#"
   xmlns:rdf="http://www.w3.org/1999/02/22-rdf-syntax-ns#"
   xmlns:svg="http://www.w3.org/2000/svg"
   xmlns="http://www.w3.org/2000/svg"
   xmlns:sodipodi="http://sodipodi.sourceforge.net/DTD/sodipodi-0.dtd"
   xmlns:inkscape="http://www.inkscape.org/namespaces/inkscape"
   version="1.1"
   id="Layer_1"
   x="0px"
   y="0px"
   width="104"
   height="104"
   viewBox="0 0 104 104"
   enable-background="new 0 0 87.506 100"
   xml:space="preserve"
   inkscape:version="0.91 r13725"
   sodipodi:docname="chronometer_watch.svg"
   inkscape:export-filename="/home/benoit/tmp/AndroidStudioProjects/Trente30/app/src/main/res/mipmap-xxhdpi/ic_launcher.png"
   inkscape:export-xdpi="124.62"
   inkscape:export-ydpi="124.62"><metadata
     id="metadata3394"><rdf:RDF><cc:Work
         rdf:about=""><dc:format>image/svg+xml</dc:format><dc:type
           rdf:resource="http://purl.org/dc/dcmitype/StillImage" /><dc:title></dc:title><cc:license
           rdf:resource="http://creativecommons.org/licenses/by-sa/3.0/" /></cc:Work><cc:License
         rdf:about="http://creativecommons.org/licenses/by-sa/3.0/"><cc:permits
           rdf:resource="http://creativecommons.org/ns#Reproduction" /><cc:permits
           rdf:resource="http://creativecommons.org/ns#Distribution" /><cc:requires
           rdf:resource="http://creativecommons.org/ns#Notice" /><cc:requires
           rdf:resource="http://creativecommons.org/ns#Attribution" /><cc:permits
           rdf:resource="http://creativecommons.org/ns#DerivativeWorks" /><cc:requires
           rdf:resource="http://creativecommons.org/ns#ShareAlike" /></cc:License></rdf:RDF></metadata><defs
     id="defs3392" /><sodipodi:namedview
     pagecolor="#ffffff"
     bordercolor="#666666"
     borderopacity="1"
     objecttolerance="10"
     gridtolerance="10"
     guidetolerance="10"
     inkscape:pageopacity="0"
     inkscape:pageshadow="2"
     inkscape:window-width="1600"
     inkscape:window-height="853"
     id="namedview3390"
     showgrid="false"
     inkscape:zoom="4.7517576"
     inkscape:cx="24.353907"
     inkscape:cy="57.044745"
     inkscape:window-x="-2"
     inkscape:window-y="-3"
     inkscape:window-maximized="1"
     inkscape:current-layer="Layer_1"
     fit-margin-top="0"
     fit-margin-left="0"
     fit-margin-right="0"
     fit-margin-bottom="0" /><circle
     style="fill:none;fill-opacity:1;fill-rule:nonzero;stroke:#ff0000;stroke-width:3.38035011;stroke-miterlimit:4;stroke-dasharray:none;stroke-opacity:0.80071175"
     id="path4226-7"
     cx="52.003296"
     cy="57.230484"
     r="44.379341"
     inkscape:export-filename="/home/benoit/tmp/AndroidStudioProjects/Trente30/app/src/main/res/mipmap-xxhdpi/ic_launcher.png"
     inkscape:export-xdpi="140.66"
     inkscape:export-ydpi="140.66" /><ellipse
     style="fill:#ffffff;fill-opacity:0.5466667"
     id="path4226"
     cx="52.300915"
     cy="57.230484"
     rx="40.550598"
     ry="40.476192" /><path
     d="m 52.119369,26.236429 c -1.656,0 -3,1.343 -3,3 l 0,28 c 0,1.657 1.344,3 3,3 1.656,0 3,-1.343 3,-3 l 0,-28 c 0,-1.657 -1.344,-3 -3,-3 z"
     id="path3386"
     inkscape:connector-curvature="0"
     inkscape:transform-center-y="-14.434524"
     style="fill:#000000;fill-opacity:0.11764706" /><path
     d="m 96.625364,24.043429 c 0,0 -1.414,-4.242 -4.243,-7.07 -2.827995,-2.829 -7.069995,-4.243 -7.069995,-4.243 l -8.988,8.988 c -4.797,-3.28 -10.289,-5.606 -16.205,-6.724 l 0,-12.7579989 c 0,0 -4,-2.00000097 -8,-2.00000097 -4,0 -8,2.00000097 -8,2.00000097 l 0,12.7579989 c -19.898,3.762 -34.9999996,21.266 -34.9999996,42.242 0,23.71 19.2899996,43.000001 42.9999996,43.000001 23.71,0 42.999995,-19.290001 42.999995,-43.000001 0,-8.971 -2.765,-17.305 -7.481995,-24.205 l 8.987995,-8.988 z M 52.119369,94.236431 c -20.402,0 -37,-16.598002 -37,-37.000002 0,-20.402 16.598,-37 37,-37 20.402,0 37,16.598 37,37 0,20.402 -16.598,37.000002 -37,37.000002 z"
     id="path3388"
     inkscape:connector-curvature="0" /><path
     d="m 60.65122,27.416419 c -1.593837,-0.449466 -3.251898,0.478337 -3.701635,2.073136 L 49.34992,56.43849 c -0.449737,1.5948 0.479299,3.25217 2.073136,3.701636 1.593837,0.449466 3.251898,-0.478337 3.701636,-2.073136 l 7.599665,-26.948935 c 0.449737,-1.594799 -0.479299,-3.25217 -2.073137,-3.701636 z"
     id="path3386-1"
     inkscape:connector-curvature="0"
     inkscape:transform-center-y="-13.89268"
     inkscape:transform-center-x="-3.9177696"
     style="fill:#000000;fill-opacity:0.39215686" /><path
     d="m 70.793667,32.384595 c -1.332109,-0.983779 -3.211077,-0.701882 -4.19545,0.631032 l -16.633952,22.52358 c -0.984373,1.332913 -0.701077,3.21167 0.631032,4.19545 1.332109,0.983779 3.211076,0.701881 4.19545,-0.631032 l 16.633951,-22.52358 c 0.984374,-1.332913 0.701078,-3.211671 -0.631031,-4.19545 z"
     id="path3386-8"
     inkscape:connector-curvature="0"
     inkscape:transform-center-y="-11.611327"
     style="fill:#000000;fill-opacity:1"
     inkscape:transform-center-x="-8.5751132" /></svg>